<?xml version="1.0" encoding="UTF-8" standalone="no" ?>
<!DOCTYPE svg PUBLIC "-//W3C//DTD SVG 1.1//EN" "http://www.w3.org/Graphics/SVG/1.1/DTD/svg11.dtd">
<svg xmlns="http://www.w3.org/2000/svg" xmlns:xlink="http://www.w3.org/1999/xlink" version="1.1" width="1080" height="1080" viewBox="0 0 1080 1080" xml:space="preserve">
<desc>Created with Fabric.js 5.2.4</desc>
<defs>
</defs>
<g transform="matrix(1 0 0 1 540 540)" id="7629734c-9def-4673-aeb9-89ff34311b23"  >
</g>
<g transform="matrix(1 0 0 1 540 540)" id="8e6e01ba-230b-48b0-8f3c-8ada8a47fdb7"  >
<rect style="stroke: none; stroke-width: 1; stroke-dasharray: none; stroke-linecap: butt; stroke-dashoffset: 0; stroke-linejoin: miter; stroke-miterlimit: 4; fill: rgb(255,255,255); fill-rule: nonzero; opacity: 1; visibility: hidden;" vector-effect="non-scaling-stroke"  x="-540" y="-540" rx="0" ry="0" width="1080" height="1080" />
</g>
<g transform="matrix(8.32 0 0 8.32 541.13 157.58)"  >
<path style="stroke: none; stroke-width: 1; stroke-dasharray: none; stroke-linecap: butt; stroke-dashoffset: 0; stroke-linejoin: miter; stroke-miterlimit: 4; fill: rgb(0,0,0); fill-rule: nonzero; opacity: 1; visibility: hidden;" vector-effect="non-scaling-stroke"  transform=" translate(-50, -50)" d="M 50 0.5 C 22.7 0.5 0.5 22.7 0.5 50 C 0.5 77.3 22.7 99.5 50 99.5 C 77.3 99.5 99.5 77.3 99.5 50 C 99.5 22.7 77.3 0.5 50 0.5 z M 50 78.1 C 34.5 78.1 21.9 65.5 21.9 49.99999999999999 C 21.9 34.499999999999986 34.5 21.9 50 21.9 C 65.5 21.9 78.1 34.5 78.1 50 C 78.1 65.5 65.5 78.1 50 78.1 z" stroke-linecap="round" />
</g>
<g transform="matrix(8.32 0 0 8.32 541.13 157.55)"  >
<path style="stroke: none; stroke-width: 1; stroke-dasharray: none; stroke-linecap: butt; stroke-dashoffset: 0; stroke-linejoin: miter; stroke-miterlimit: 4; fill: rgb(0,0,0); fill-rule: nonzero; opacity: 1; visibility: hidden;" vector-effect="non-scaling-stroke"  transform=" translate(-50, -50)" d="M 99.5 43.2 C 99.5 20.7 77.3 2.4 50 2.4 C 22.7 2.4 0.5 20.7 0.5 43.2 C 0.5 55.6 7.3 66.7 17.9 74.2 L 17.9 89.2 C 17.9 93.8 21.7 97.60000000000001 26.299999999999997 97.60000000000001 C 30.899999999999995 97.60000000000001 34.699999999999996 93.80000000000001 34.699999999999996 89.2 C 34.699999999999996 87.3 36.3 85.7 38.199999999999996 85.7 C 40.099999999999994 85.7 41.699999999999996 87.3 41.699999999999996 89.2 C 41.699999999999996 93.8 45.49999999999999 97.60000000000001 50.099999999999994 97.60000000000001 C 54.699999999999996 97.60000000000001 58.49999999999999 93.80000000000001 58.49999999999999 89.2 C 58.49999999999999 87.3 60.099999999999994 85.7 61.99999999999999 85.7 C 63.89999999999999 85.7 65.5 87.3 65.5 89.2 C 65.5 93.8 69.3 97.60000000000001 73.9 97.60000000000001 C 78.5 97.60000000000001 82.30000000000001 93.80000000000001 82.30000000000001 89.2 L 82.30000000000001 74.1 C 92.8 66.6 99.5 55.5 99.5 43.2 z M 50 18.9 C 66.3 18.9 79.5 29.799999999999997 79.5 43.2 C 79.5 56.60000000000001 66.3 67.5 50 67.5 C 33.7 67.5 20.5 56.6 20.5 43.2 C 20.5 29.800000000000004 33.7 18.9 50 18.9 z" stroke-linecap="round" />
</g>
<g transform="matrix(8.32 0 0 8.32 492.88 101.69)"  >
<path style="stroke: none; stroke-width: 1; stroke-dasharray: none; stroke-linecap: butt; stroke-dashoffset: 0; stroke-linejoin: miter; stroke-miterlimit: 4; fill: rgb(0,0,0); fill-rule: nonzero; opacity: 1; visibility: hidden;" vector-effect="non-scaling-stroke"  transform=" translate(-44.32, -43.4)" d="M 44.3 43.4 C 44.3 43.4 44.3 43.4 44.3 43.4 C 44.3 43.4 44.4 43.4 44.3 43.4 L 44.3 43.4 z" stroke-linecap="round" />
</g>
<g transform="matrix(8.32 0 0 8.32 344 271.33)"  >
<path style="stroke: none; stroke-width: 1; stroke-dasharray: none; stroke-linecap: butt; stroke-dashoffset: 0; stroke-linejoin: miter; stroke-miterlimit: 4; fill: rgb(0,0,0); fill-rule: nonzero; opacity: 1; visibility: hidden;" vector-effect="non-scaling-stroke"  transform=" translate(-26.3, -63.75)" d="M 44.3 43.4 C 34.3 40.699999999999996 25.299999999999997 35.4 18.099999999999998 28.299999999999997 L 17.8 28 C 10.200000000000001 36 5.600000000000001 46.8 5.600000000000001 58.6 C 5.600000000000001 77 16.8 92.80000000000001 32.7 99.5 L 32.6 99.5 C 41.6 89.2 47 75.8 47 61.1 C 47.1 54.9 46.1 49 44.3 43.4 z" stroke-linecap="round" />
</g>
<g transform="matrix(8.32 0 0 8.32 586.75 101.69)"  >
<path style="stroke: none; stroke-width: 1; stroke-dasharray: none; stroke-linecap: butt; stroke-dashoffset: 0; stroke-linejoin: miter; stroke-miterlimit: 4; fill: rgb(0,0,0); fill-rule: nonzero; opacity: 1; visibility: hidden;" vector-effect="non-scaling-stroke"  transform=" translate(-55.64, -43.4)" d="M 55.6 43.4 C 55.6 43.4 55.7 43.4 55.6 43.4 C 55.7 43.4 55.7 43.4 55.6 43.4 L 55.6 43.4 z" stroke-linecap="round" />
</g>
<g transform="matrix(8.32 0 0 8.32 736.98 271.75)"  >
<path style="stroke: none; stroke-width: 1; stroke-dasharray: none; stroke-linecap: butt; stroke-dashoffset: 0; stroke-linejoin: miter; stroke-miterlimit: 4; fill: rgb(0,0,0); fill-rule: nonzero; opacity: 1; visibility: hidden;" vector-effect="non-scaling-stroke"  transform=" translate(-73.7, -63.8)" d="M 82.2 28 L 81.9 28.4 C 74.80000000000001 35.5 65.80000000000001 40.8 55.7 43.5 C 53.900000000000006 49.1 53 55 53 61.2 C 53 75.9 58.4 89.30000000000001 67.4 99.6 L 67.30000000000001 99.6 C 83.2 92.8 94.4 77 94.4 58.6 C 94.4 46.7 89.7 35.9 82.2 28 z" stroke-linecap="round" />
</g>
<g transform="matrix(8.32 0 0 8.32 540.59 -118.59)"  >
<path style="stroke: none; stroke-width: 1; stroke-dasharray: none; stroke-linecap: butt; stroke-dashoffset: 0; stroke-linejoin: miter; stroke-miterlimit: 4; fill: rgb(0,0,0); fill-rule: nonzero; opacity: 1; visibility: hidden;" vector-effect="non-scaling-stroke"  transform=" translate(-50, -16.78)" d="M 73.5 20.9 C 70.2 18.799999999999997 66.6 17.2 62.7 15.999999999999998 L 71.4 5.099999999999998 C 72.4 3.8999999999999977 72.2 2.099999999999998 70.9 1.0999999999999979 C 69.7 0.09999999999999787 67.9 0.2999999999999978 66.9 1.5999999999999979 L 56.6 14.7 C 54.5 14.399999999999999 52.300000000000004 14.2 50 14.2 C 47.8 14.2 45.6 14.399999999999999 43.4 14.7 L 43.4 14.7 L 33.1 1.6 C 32.1 0.40000000000000013 30.400000000000002 0.20000000000000018 29.1 1.1 C 27.900000000000002 2.1 27.700000000000003 3.8000000000000003 28.6 5.1 L 37.3 16 C 33.5 17.1 29.799999999999997 18.8 26.499999999999996 20.9 L 26.499999999999996 20.9 C 31.699999999999996 28.299999999999997 40.3 33.099999999999994 50 33.099999999999994 C 59.7 33.1 68.3 28.3 73.5 20.9 z" stroke-linecap="round" />
</g>
<g transform="matrix(8.32 0 0 8.32 734.83 -84.82)" id="SvgjsG8287"  >
<polygon style="stroke: none; stroke-width: 1; stroke-dasharray: none; stroke-linecap: butt; stroke-dashoffset: 0; stroke-linejoin: miter; stroke-miterlimit: 4; fill: rgb(0,0,0); fill-rule: nonzero; opacity: 1; visibility: hidden;" vector-effect="non-scaling-stroke"  points="0,0 0,0 0,0 " />
</g>
<g transform="matrix(8.32 0 0 8.32 540.99 157.61)"  >
<path style="stroke: none; stroke-width: 1; stroke-dasharray: none; stroke-linecap: butt; stroke-dashoffset: 0; stroke-linejoin: miter; stroke-miterlimit: 4; fill: rgb(0,0,0); fill-rule: nonzero; opacity: 1; visibility: hidden;" vector-effect="non-scaling-stroke"  transform=" translate(-50, -50.01)" d="M 93.1 3.2 C 93.1 3.2 59.699999999999996 -1.5999999999999996 30.099999999999994 14.3 L 30.099999999999994 14.3 C 15.499999999999995 21.4 5.399999999999995 36.3 5.399999999999995 53.7 C 5.399999999999995 65.10000000000001 9.799999999999995 75.4 16.899999999999995 83.2 L 33.599999999999994 65.5 L 34.699999999999996 37.4 L 39.599999999999994 59.099999999999994 L 48.099999999999994 50.099999999999994 L 48.99999999999999 28.399999999999995 L 52.79999999999999 45.199999999999996 L 76.6 20.099999999999994 L 56.9 47.3 L 74.1 48 L 52.8 52.8 L 45.699999999999996 62.599999999999994 L 68.39999999999999 63.49999999999999 L 40.39999999999999 69.8 L 25.4 90.4 C 32.3 94.9 40.5 97.5 49.3 97.5 C 69.3 97.5 86.19999999999999 84 91.4 65.7 L 91.4 65.7 C 91.4 65.5 91.5 65.4 91.5 65.2 C 92.1 62.900000000000006 92.6 60.5 92.9 58.1 C 96.6 34.1 93.1 3.2 93.1 3.2 z" stroke-linecap="round" />
</g>
<g transform="matrix(8.32 0 0 8.32 541.09 157.38)"  >
<path style="stroke: none; stroke-width: 1; stroke-dasharray: none; stroke-linecap: butt; stroke-dashoffset: 0; stroke-linejoin: miter; stroke-miterlimit: 4; fill: rgb(0,0,0); fill-rule: nonzero; opacity: 1; visibility: hidden;" vector-effect="non-scaling-stroke"  transform=" translate(-50, -49.98)" d="M 85.2 81.9 C 85.2 81.80000000000001 85.2 81.80000000000001 85.3 81.80000000000001 C 93.39999999999999 73.20000000000002 98.3 61.60000000000001 98.3 48.90000000000001 C 98.3 22.1 76.7 0.5 50 0.5 C 23.299999999999997 0.5 1.7 22.1 1.7 48.8 C 1.7 69.3 14.5 86.8 32.5 93.8 C 32.5 93.8 32.4 93.8 32.4 93.8 C 32.4 93.8 60.2 107.7 96.69999999999999 91.89999999999999 C 96.8 92 79.4 91.2 85.2 81.9 z M 33.6 53.6 C 27.400000000000002 53.6 22.3 48.6 22.3 42.3 C 22.3 37.699999999999996 25 33.9 28.9 32.099999999999994 C 30.9 38.699999999999996 37 43.49999999999999 44.2 43.49999999999999 C 44.400000000000006 43.49999999999999 44.5 43.49999999999999 44.7 43.49999999999999 C 44.2 49.1 39.4 53.6 33.6 53.6 z M 62.7 53.6 C 56.900000000000006 53.6 52.1 49.1 51.5 43.400000000000006 C 51.7 43.400000000000006 51.8 43.400000000000006 52 43.400000000000006 C 59.2 43.400000000000006 65.3 38.60000000000001 67.3 32.00000000000001 C 71.2 33.800000000000004 73.89999999999999 37.70000000000001 73.89999999999999 42.2 C 73.9 48.5 68.9 53.6 62.7 53.6 z" stroke-linecap="round" />
</g>
<g transform="matrix(8.32 0 0 8.32 637.12 157.37)" id="SvgjsG8287"  >
<polygon style="stroke: none; stroke-width: 1; stroke-dasharray: none; stroke-linecap: butt; stroke-dashoffset: 0; stroke-linejoin: miter; stroke-miterlimit: 4; fill: rgb(0,0,0); fill-rule: nonzero; opacity: 1; visibility: hidden;" vector-effect="non-scaling-stroke"  points="13.6,-36.5 -13.6,-36.5 -37.9,36.5 37.9,36.5 " />
</g>
<g transform="matrix(8.32 0 0 8.32 255.06 251.56)" id="SvgjsG8287"  >
<polygon style="stroke: none; stroke-width: 1; stroke-dasharray: none; stroke-linecap: butt; stroke-dashoffset: 0; stroke-linejoin: miter; stroke-miterlimit: 4; fill: rgb(0,0,0); fill-rule: nonzero; opacity: 1; visibility: hidden;" vector-effect="non-scaling-stroke"  points="1.6,-25.1 -15.1,25.1 -1.6,25.1 15.1,-25.1 " />
</g>
<g transform="matrix(8.32 0 0 8.32 447.58 123.64)" id="SvgjsG8287"  >
<polygon style="stroke: none; stroke-width: 1; stroke-dasharray: none; stroke-linecap: butt; stroke-dashoffset: 0; stroke-linejoin: miter; stroke-miterlimit: 4; fill: rgb(0,0,0); fill-rule: nonzero; opacity: 1; visibility: hidden;" vector-effect="non-scaling-stroke"  points="38.25,-34.25 -7.15,-34.25 -38.25,4.45 -38.25,28.95 -15.75,34.25 31.45,1.55 " />
</g>
<g transform="matrix(8.32 0 0 8.32 618.55 340.09)" id="SvgjsG8287"  >
<polygon style="stroke: none; stroke-width: 1; stroke-dasharray: none; stroke-linecap: butt; stroke-dashoffset: 0; stroke-linejoin: miter; stroke-miterlimit: 4; fill: rgb(0,0,0); fill-rule: nonzero; opacity: 1; visibility: hidden;" vector-effect="non-scaling-stroke"  points="-24.9,10.7 -3.8,16.2 24.9,-2.6 14.5,-16.2 " />
</g>
<g transform="matrix(8.32 0 0 8.32 867.44 60.44)" id="SvgjsG8287"  >
<polygon style="stroke: none; stroke-width: 1; stroke-dasharray: none; stroke-linecap: butt; stroke-dashoffset: 0; stroke-linejoin: miter; stroke-miterlimit: 4; fill: rgb(0,0,0); fill-rule: nonzero; opacity: 1; visibility: hidden;" vector-effect="non-scaling-stroke"  points="-2.25,-26.65 -10.05,11.75 0.15,26.65 10.05,20.15 " />
</g>
<g transform="matrix(8.32 0 0 8.32 540.8 157.58)"  >
<path style="stroke: none; stroke-width: 1; stroke-dasharray: none; stroke-linecap: butt; stroke-dashoffset: 0; stroke-linejoin: miter; stroke-miterlimit: 4; fill: rgb(0,0,0); fill-rule: nonzero; opacity: 1; visibility: hidden;" vector-effect="non-scaling-stroke"  transform=" translate(-50, -50)" d="M 83 56.3 L 83 56.3 C 83 56.199999999999996 82.9 56 82.9 55.9 C 82.7 55.1 82.4 54.3 82.10000000000001 53.5 C 75.3 33.8 50 0.5 50 0.5 C 50 0.5 24.7 33.8 17.9 53.5 C 17.599999999999998 54.3 17.4 55.1 17.099999999999998 55.9 C 17.099999999999998 56 16.999999999999996 56.199999999999996 16.999999999999996 56.3 L 16.999999999999996 56.3 C 16.199999999999996 59.199999999999996 15.799999999999997 62.199999999999996 15.799999999999997 65.3 C 15.799999999999997 84.19999999999999 31.099999999999998 99.5 50 99.5 C 68.9 99.5 84.2 84.2 84.2 65.3 C 84.2 62.2 83.8 59.2 83 56.3 z M 67.4 79.5 L 67.4 79.5 C 63.50000000000001 84.9 57.2 88.5 50.00000000000001 88.5 C 39.2 88.5 30.300000000000008 80.5 28.900000000000006 70.1 C 28.900000000000006 70.1 28.900000000000006 70.1 28.900000000000006 70.1 L 28.900000000000006 70 C 28.900000000000006 70 28.900000000000006 70 28.900000000000006 70.1 C 28.900000000000006 67.19999999999999 31.200000000000006 64.89999999999999 34.10000000000001 64.89999999999999 C 36.60000000000001 64.89999999999999 38.80000000000001 66.69999999999999 39.20000000000001 69.19999999999999 L 39.20000000000001 69.19999999999999 C 40.30000000000001 74.29999999999998 44.40000000000001 78.6 49.900000000000006 79.6 C 54.7 80.5 59.400000000000006 78.8 62.50000000000001 75.39999999999999 C 62.50000000000001 75.39999999999999 62.50000000000001 75.39999999999999 62.50000000000001 75.39999999999999 L 62.50000000000001 75.39999999999999 C 62.50000000000001 75.39999999999999 62.50000000000001 75.39999999999999 62.50000000000001 75.39999999999999 C 63.10000000000001 74.89999999999999 64 74.6 64.9 74.69999999999999 C 66.7 74.89999999999999 68 76.39999999999999 67.9 78.19999999999999 C 67.8 78.6 67.6 79.1 67.4 79.5 z" stroke-linecap="round" />
</g>
<g transform="matrix(8.32 0 0 8.32 542.38 157.07)"  >
<path style="stroke: none; stroke-width: 1; stroke-dasharray: none; stroke-linecap: butt; stroke-dashoffset: 0; stroke-linejoin: miter; stroke-miterlimit: 4; fill: rgb(0,0,0); fill-rule: nonzero; opacity: 1; visibility: hidden;" vector-effect="non-scaling-stroke"  transform=" translate(-50.15, -49.95)" d="M 35 24.8 C 16 26.2 0.5 40.2 0.5 59.2 C 0.5 78.2 15.9 93.7 35 93.7 C 47.5 93.7 58.4 87.10000000000001 64.4 77.2 C 64.4 77.2 57.00000000000001 79.4 49.60000000000001 80.2 C 47.60000000000001 80.4 45.70000000000001 79.3 45.400000000000006 77.3 C 45.00000000000001 75.3 46.300000000000004 73.39999999999999 48.300000000000004 73.1 C 48.300000000000004 73.1 68.7 68.89999999999999 78 58.099999999999994 C 78 58.099999999999994 65.7 63.99999999999999 50.8 65.19999999999999 C 48.8 65.39999999999999 46.9 64.29999999999998 46.599999999999994 62.29999999999999 C 46.199999999999996 60.29999999999999 47.49999999999999 58.39999999999999 49.49999999999999 58.09999999999999 C 49.49999999999999 58.09999999999999 76.3 53.999999999999986 91.1 34.69999999999999 C 91.1 34.69999999999999 76.39999999999999 45.499999999999986 52.099999999999994 46.999999999999986 C 50.099999999999994 47.09999999999999 48.199999999999996 46.09999999999999 47.89999999999999 44.09999999999999 C 47.59999999999999 42.09999999999999 48.79999999999999 40.19999999999999 50.79999999999999 39.899999999999984 C 50.79999999999999 39.899999999999984 80.29999999999998 36.69999999999998 99.79999999999998 6.1999999999999815 C 99.5 6.3 78.9 21.5 35 24.8 z" stroke-linecap="round" />
</g>
<g transform="matrix(8.32 0 0 8.32 540.83 158.03)"  >
<path style="stroke: none; stroke-width: 1; stroke-dasharray: none; stroke-linecap: butt; stroke-dashoffset: 0; stroke-linejoin: miter; stroke-miterlimit: 4; fill: rgb(0,0,0); fill-rule: nonzero; opacity: 1; visibility: hidden;" vector-effect="non-scaling-stroke"  transform=" translate(-50, -50.05)" d="M 72 94.8 C 66.4 97.8 59.9 99.5 53.1 99.5 C 30.900000000000002 99.5 12.899999999999999 81.5 12.899999999999999 59.3 C 12.899999999999999 53.099999999999994 14.299999999999999 47.3 16.799999999999997 42.099999999999994 C 16.799999999999997 42.099999999999994 16.799999999999997 52.8 21.599999999999998 57.599999999999994 C 21.599999999999998 57.599999999999994 20.2 52.39999999999999 25.4 43.699999999999996 C 30.599999999999998 35 49.3 26.699999999999996 51.4 19.399999999999995 C 53.5 12.099999999999994 52.4 4.199999999999996 49.1 0.5999999999999943 C 49.1 0.5999999999999943 58.900000000000006 5.499999999999995 59.3 16.499999999999993 C 59.8 27.499999999999993 55.8 38.599999999999994 62.3 42.19999999999999 C 67.3 44.89999999999999 72.8 42.19999999999999 73.3 37.19999999999999 C 73.7 33.59999999999999 72.1 28.099999999999987 68 23.79999999999999 C 68 23.79999999999999 87.1 35.39999999999999 87.1 55.89999999999999 C 87.1 82.6 66 89 66 89 C 76 75.1 68.1 62 68.1 62 C 68.3 75.9 56.39999999999999 78.8 56.39999999999999 78.8 C 60.39999999999999 76.8 63.19999999999999 72.6 63.19999999999999 67.8 C 63.19999999999999 61 57.69999999999999 55.5 50.89999999999999 55.5 C 44.099999999999994 55.5 38.7 61 38.7 67.7 C 38.7 69.7 40 73.2 40 73.2 C 34.8 70.3 35.8 62.800000000000004 35.8 62.800000000000004 C 35.199999999999996 65 34.9 67.30000000000001 34.9 69.7 C 34.9 84.8 47.2 97.1 62.3 97.1 C 65.7 97.1 68.89999999999999 96.5 71.89999999999999 95.39999999999999" stroke-linecap="round" />
</g>
<g transform="matrix(8.32 0 0 8.32 541.13 157.53)"  >
<path style="stroke: none; stroke-width: 1; stroke-dasharray: none; stroke-linecap: butt; stroke-dashoffset: 0; stroke-linejoin: miter; stroke-miterlimit: 4; fill: rgb(0,0,0); fill-rule: nonzero; opacity: 1; visibility: hidden;" vector-effect="non-scaling-stroke"  transform=" translate(-50, -50)" d="M 70.6 6 L 29.4 6 C 26.4 6 23.7 7.6 22.2 10.1 L 1.6 45.9 C 0.10000000000000009 48.5 0.10000000000000009 51.6 1.6 54.2 L 22.200000000000003 89.9 C 23.700000000000003 92.5 26.400000000000002 94 29.400000000000002 94 L 70.60000000000001 94 C 73.60000000000001 94 76.30000000000001 92.4 77.80000000000001 89.9 L 98.4 54.2 C 99.9 51.6 99.9 48.5 98.4 45.900000000000006 L 77.8 10.2 C 76.3 7.6 73.6 6 70.6 6 z M 55 71.1 C 39.2 74.6 25.4 60.8 28.9 45 C 30.7 37 37.099999999999994 30.6 45.099999999999994 28.8 C 60.8 25.4 74.6 39.2 71.1 55 C 69.3 62.9 62.9 69.3 55 71.1 z" stroke-linecap="round" />
</g>
<g transform="matrix(10.67 0 0 10.67 234.57 540.45)"  >
<path style="stroke: none; stroke-width: 1; stroke-dasharray: none; stroke-linecap: butt; stroke-dashoffset: 0; stroke-linejoin: miter; stroke-miterlimit: 4; fill: rgb(0,0,0); fill-rule: nonzero; opacity: 1;" vector-effect="non-scaling-stroke"  transform=" translate(-21.3, -50.05)" d="M 1.3 48.6 L 20.2 37.3 C 20.7 37 21.4 37 21.9 37.3 L 41.3 48.599999999999994 C 42.4 49.199999999999996 42.4 50.8 41.3 51.49999999999999 L 21.9 62.8 C 21.4 63.099999999999994 20.7 63.099999999999994 20.2 62.8 L 1.3 51.5 C 0.2 50.8 0.2 49.3 1.3 48.6 z" stroke-linecap="round" />
</g>
<g transform="matrix(10.67 0 0 10.67 845.43 540.45)"  >
<path style="stroke: none; stroke-width: 1; stroke-dasharray: none; stroke-linecap: butt; stroke-dashoffset: 0; stroke-linejoin: miter; stroke-miterlimit: 4; fill: rgb(0,0,0); fill-rule: nonzero; opacity: 1;" vector-effect="non-scaling-stroke"  transform=" translate(-78.7, -50.05)" d="M 58.7 48.6 L 77.6 37.3 C 78.1 37 78.8 37 79.3 37.3 L 98.69999999999999 48.599999999999994 C 99.79999999999998 49.199999999999996 99.79999999999998 50.8 98.69999999999999 51.49999999999999 L 79.3 62.8 C 78.8 63.099999999999994 78.1 63.099999999999994 77.6 62.8 L 58.7 51.5 C 57.6 50.8 57.6 49.3 58.7 48.6 z" stroke-linecap="round" />
</g>
<g transform="matrix(10.67 0 0 10.67 385.48 805.25)"  >
<path style="stroke: none; stroke-width: 1; stroke-dasharray: none; stroke-linecap: butt; stroke-dashoffset: 0; stroke-linejoin: miter; stroke-miterlimit: 4; fill: rgb(0,0,0); fill-rule: nonzero; opacity: 1;" vector-effect="non-scaling-stroke"  transform=" translate(-35.5, -74.93)" d="M 24.4 91.5 L 24 69.5 C 24 68.9 24.3 68.3 24.8 68 L 44.3 56.9 C 45.4 56.3 46.8 57.1 46.8 58.3 L 47 80.8 C 47 81.39999999999999 46.7 82 46.1 82.3 L 26.9 92.9 C 25.8 93.6 24.5 92.8 24.4 91.5 z" stroke-linecap="round" />
</g>
<g transform="matrix(10.67 0 0 10.67 690.77 276.19)"  >
<path style="stroke: none; stroke-width: 1; stroke-dasharray: none; stroke-linecap: butt; stroke-dashoffset: 0; stroke-linejoin: miter; stroke-miterlimit: 4; fill: rgb(0,0,0); fill-rule: nonzero; opacity: 1;" vector-effect="non-scaling-stroke"  transform=" translate(-64.2, -25.21)" d="M 53.1 41.8 L 52.7 19.799999999999997 C 52.7 19.199999999999996 53 18.599999999999998 53.5 18.299999999999997 L 73.1 7.2 C 74.19999999999999 6.6000000000000005 75.6 7.4 75.6 8.6 L 75.69999999999999 31 C 75.69999999999999 31.6 75.39999999999999 32.2 74.79999999999998 32.5 L 55.6 43.2 C 54.5 43.8 53.2 43.1 53.1 41.8 z" stroke-linecap="round" />
</g>
<g transform="matrix(10.67 0 0 10.67 692.54 803.72)"  >
<path style="stroke: none; stroke-width: 1; stroke-dasharray: none; stroke-linecap: butt; stroke-dashoffset: 0; stroke-linejoin: miter; stroke-miterlimit: 4; fill: rgb(0,0,0); fill-rule: nonzero; opacity: 1;" vector-effect="non-scaling-stroke"  transform=" translate(-64.36, -74.77)" d="M 73.1 92.8 L 53.8 82.1 C 53.3 81.8 52.9 81.19999999999999 52.9 80.6 L 53 58.199999999999996 C 53 56.9 54.4 56.099999999999994 55.5 56.8 L 75 67.89999999999999 C 75.5 68.19999999999999 75.9 68.8 75.8 69.39999999999999 L 75.39999999999999 91.39999999999999 C 75.5 92.6 74.2 93.4 73.1 92.8 z" stroke-linecap="round" />
</g>
<g transform="matrix(10.67 0 0 10.67 387.11 274.75)"  >
<path style="stroke: none; stroke-width: 1; stroke-dasharray: none; stroke-linecap: butt; stroke-dashoffset: 0; stroke-linejoin: miter; stroke-miterlimit: 4; fill: rgb(0,0,0); fill-rule: nonzero; opacity: 1;" vector-effect="non-scaling-stroke"  transform=" translate(-35.66, -25.07)" d="M 44.4 43.1 L 25.1 32.4 C 24.6 32.1 24.200000000000003 31.5 24.200000000000003 30.9 L 24.300000000000004 8.5 C 24.300000000000004 7.2 25.700000000000003 6.4 26.800000000000004 7.1 L 46.300000000000004 18.2 C 46.800000000000004 18.5 47.2 19.099999999999998 47.1 19.7 L 46.7 41.7 C 46.8 42.9 45.5 43.7 44.4 43.1 z" stroke-linecap="round" />
</g>
</svg>